<svg xmlns="http://www.w3.org/2000/svg" height="24" viewBox="0 -960 960 960" width="24"><path d="M488.692-212.308q8.923-1 13.962-6.154 5.038-5.155 5.038-12.432 0-8.491-5.754-13.145-5.755-4.653-14.707-3.653-41 3-91.616-25.577Q345-301.846 333-368.846q-2-9.462-6.654-14.154t-11.808-4.692q-7.846 0-13.384 5.884-5.539 5.885-3.308 17.577Q313.308-280.923 374.769-245q61.462 35.923 113.923 32.692ZM479.859-120q-119.936 0-199.898-82.536Q200-285.073 200-408q0-86.154 69.5-190.577T480-827.693Q621-703 690.5-598.577 760-494.154 760-408q0 122.927-80.103 205.464Q599.794-120 479.859-120Zm.141-40q104 0 172-70.5T720-408q0-73-60.5-165T480-774Q361-665 300.5-573T240-408q0 107 68 177.5T480-160Zm0-313.846Z"/></svg>