<svg xmlns="http://www.w3.org/2000/svg" height="24" viewBox="0 -960 960 960" width="24"><path d="M480-160q-66.846 0-113.423-46.577T320-320q0-43.385 21.769-79.5T400-458.462V-720q0-33.846 23.077-56.923Q446.154-800 480-800q33.846 0 56.923 23.077Q560-753.846 560-720v261.538q36.462 22.847 57.846 58.962Q639.231-363.385 640-320q-.769 66.846-47.346 113.423T480-160Zm0-40q50 0 85-35t35-85q0-29-12.5-54T552-416l-32-24v-280q0-17-11.5-28.5T480-760q-17 0-28.5 11.5T440-720v280l-32 24q-23 17-35.5 42T360-320q0 50 35 85t85 35Zm0-120Z"/></svg>