<svg xmlns="http://www.w3.org/2000/svg" height="24" viewBox="0 -960 960 960" width="24"><path d="M552.615-95.538q-7.307 4.153-15.115 1.346-7.808-2.808-11.962-10.116l-67.692-135.384q-4.154-7.308-1.346-15.116 2.808-7.807 10.115-11.961 7.308-4.154 15.5-.962 8.193 3.192 12.347 10.5l67.692 134.616q4.154 7.307.961 15.115-3.192 7.808-10.5 11.962Zm240.77 0q-7.308 4.153-15.116 1.346-7.808-2.808-11.961-10.116l-67.693-135.384q-4.154-7.308-1.346-15.116 2.808-7.807 10.116-11.961 7.307-4.154 15.5-.962 8.192 3.192 12.346 10.5l67.692 134.616q4.154 7.307.962 15.115-3.193 7.808-10.5 11.962Zm-480.77 0q-7.307 4.153-15.5 1.346-8.192-2.808-12.346-10.116l-67.692-135.384q-4.154-7.308-.962-15.116 3.193-7.807 10.5-11.961 7.308-4.154 15.116-.962t11.961 10.5l67.693 134.616q4.154 7.307 1.346 15.115t-10.116 11.962ZM300-340q-83.308 0-141.654-58.346Q100-456.692 100-540q0-77.615 52.308-134.231 52.307-56.615 131-65.308 29.692-56.23 81.346-88.346Q416.308-860 480-860q86.154 0 148.039 57.115 61.884 57.116 72.038 142.346 73.615 4.462 116.769 51.231Q860-562.539 860-500q0 66.539-46.731 113.269Q766.539-340 700-340H300Zm0-40h400q49.692 0 84.846-35.154T820-500q0-49.692-35.154-84.846T700-620h-40v-20q0-74.461-52.769-127.231Q554.461-820 480-820q-54.154 0-98.654 29.462-44.5 29.461-66.807 78.846L309.923-700H298q-65.461 2-111.731 48.269Q140-605.461 140-540q0 66.461 46.769 113.231Q233.539-380 300-380Zm180-220Z"/></svg>